HIERARCHY
ROOT Hips
{
 OFFSET 0.000000 0.000000 0.000000
 CHANNELS 6 Xposition Yposition Zposition Yrotation Xrotation Zrotation
 JOINT Chest
 {
  OFFSET 0.000000 9.585900 0.002600
  CHANNELS 3 Yrotation Xrotation Zrotation
  JOINT Chest2
  {
   OFFSET 0.000000 9.601200 -0.005300
   CHANNELS 3 Yrotation Xrotation Zrotation
   JOINT Chest3
   {
    OFFSET 0.000000 9.561800 0.000000
    CHANNELS 3 Yrotation Xrotation Zrotation
    JOINT Chest4
    {
     OFFSET 0.000000 9.552100 0.000000
     CHANNELS 3 Yrotation Xrotation Zrotation
     JOINT Neck
     {
      OFFSET 0.000000 14.453000 0.000000
      CHANNELS 3 Yrotation Xrotation Zrotation
      JOINT Head
      {
       OFFSET 0.000000 8.936500 -0.011300
       CHANNELS 3 Yrotation Xrotation Zrotation
       End Site
       {
        OFFSET 0.000000 17.073600 -0.006000
       }
      }
     }
     JOINT RightCollar
     {
      OFFSET -2.921100 9.558500 0.000000
      CHANNELS 3 Yrotation Xrotation Zrotation
      JOINT RightShoulder
      {
       OFFSET -13.519700 0.000000 0.000000
       CHANNELS 3 Yrotation Xrotation Zrotation
       JOINT RightElbow
       {
        OFFSET 0.000000 -29.696600 0.000000
        CHANNELS 3 Yrotation Xrotation Zrotation
        JOINT RightWrist
        {
         OFFSET 0.000000 -24.004700 0.000000
         CHANNELS 3 Yrotation Xrotation Zrotation
         End Site
         {
          OFFSET 0.000000 -17.728500 0.000000
         }
        }
       }
      }
     }
     JOINT LeftCollar
     {
      OFFSET 2.921100 9.558500 0.000000
      CHANNELS 3 Yrotation Xrotation Zrotation
      JOINT LeftShoulder
      {
       OFFSET 13.519700 0.000000 0.000000
       CHANNELS 3 Yrotation Xrotation Zrotation
       JOINT LeftElbow
       {
        OFFSET 0.000000 -29.696600 0.000000
        CHANNELS 3 Yrotation Xrotation Zrotation
        JOINT LeftWrist
        {
         OFFSET 0.000000 -24.004700 0.000000
         CHANNELS 3 Yrotation Xrotation Zrotation
         End Site
         {
          OFFSET 0.000000 -17.728500 0.000000
         }
        }
       }
      }
     }
    }
   }
  }
 }
 JOINT RightHip
 {
  OFFSET -7.771700 -0.012900 -0.001300
  CHANNELS 3 Yrotation Xrotation Zrotation
  JOINT RightKnee
  {
   OFFSET 0.000000 -40.869800 0.001200
   CHANNELS 3 Yrotation Xrotation Zrotation
   JOINT RightAnkle
   {
    OFFSET 0.000000 -39.717900 0.002100
    CHANNELS 3 Yrotation Xrotation Zrotation
    JOINT RightToe
    {
     OFFSET 0.000000 -4.965400 11.033500
     CHANNELS 3 Yrotation Xrotation Zrotation
     End Site
     {
      OFFSET 0.000000 -1.423100 5.872300
     }
    }
   }
  }
 }
 JOINT LeftHip
 {
  OFFSET 7.771700 -0.012900 -0.001300
  CHANNELS 3 Yrotation Xrotation Zrotation
  JOINT LeftKnee
  {
   OFFSET 0.000000 -40.869800 0.001200
   CHANNELS 3 Yrotation Xrotation Zrotation
   JOINT LeftAnkle
   {
    OFFSET 0.000000 -39.717900 0.002100
    CHANNELS 3 Yrotation Xrotation Zrotation
    JOINT LeftToe
    {
     OFFSET 0.000000 -4.965400 11.033500
     CHANNELS 3 Yrotation Xrotation Zrotation
     End Site
     {
      OFFSET 0.000000 -1.423100 5.872300
     }
    }
   }
  }
 }
}
MOTION
Frames: 13
Frame Time: 0.008333
0.000000 85.388000 0.000000 0.000000 -5.767877 0.000000 0.000000 11.653817 0.000000 0.000000 -5.885947 0.000000 0.000000 -0.000000 0.000000 0.000000 -0.000000 0.000000 0.000000 12.528835 0.000000 0.000000 0.711642 0.000000 0.000000 -0.000000 0.000000 0.000000 0.000000 -90.000000 0.000000 -2.309062 0.000000 0.000000 2.309062 0.000000 0.000000 -0.000000 0.000000 0.000000 -0.000000 90.000000 0.000000 -2.309062 0.000000 0.000000 2.309062 0.000000 0.000000 8.520406 0.000000 0.000000 1.905762 0.000000 -0.000000 -4.658285 0.000000 0.000000 -0.000000 0.000000 0.000000 8.520406 0.000000 0.000000 1.905762 0.000000 -0.000000 -4.658285 0.000000 0.000000 -0.000000 0.000000
-26.416874 46.953775 26.689012 -178.905984 -26.039091 -2.466347 -0.813086 18.267592 1.952123 -0.086166 2.088053 0.287672 -0.136881 3.454825 0.474465 -0.398440 15.959787 2.167903 -4.840048 19.479167 0.798924 -9.058375 0.508006 2.932893 -0.213492 1.512924 -3.887861 -13.304361 -21.605759 -25.239209 119.364528 -56.547239 -105.324146 9.753628 13.453730 -17.809311 0.176751 -1.042298 2.717825 2.742986 -1.737107 13.250736 75.923805 -67.347618 -111.019851 2.704207 12.017772 20.643456 10.022845 -59.862951 -17.948150 -155.055785 78.458306 -148.526079 -7.363950 -12.264414 -0.836328 0.024274 -0.306036 0.017592 -1.332873 -61.812852 6.414016 -106.767311 81.331628 -111.521844 5.013760 -6.943172 5.247997 0.289603 0.384645 0.183132
-26.415041 46.955626 26.690301 -178.918428 -26.036935 -2.453861 -0.797085 18.298554 1.955674 -0.086631 2.111231 0.288518 -0.137087 3.441142 0.473914 -0.395666 16.011461 2.164974 -4.786040 19.449022 0.794485 -8.988038 0.489691 2.920552 -0.176821 1.453786 -3.862924 -13.334549 -21.713345 -25.238956 118.545086 -56.542159 -104.629136 9.804233 13.741220 -17.732464 0.183216 -1.092537 2.722807 2.742818 -1.735551 13.229775 75.967830 -67.358694 -111.049419 2.725904 12.021876 20.672949 10.023758 -59.868208 -17.952820 -155.103949 78.464320 -148.576732 -7.360867 -12.259715 -0.841211 0.024128 -0.313564 0.010966 -1.297223 -61.814298 6.396074 -106.732077 81.327496 -111.484827 5.018644 -6.935365 5.240944 0.287754 0.379718 0.177511
-26.409615 46.956848 26.694390 -178.949086 -26.017054 -2.452545 -0.766466 18.313646 1.970310 -0.085586 2.094841 0.287712 -0.135957 3.485646 0.473705 -0.389810 16.013266 2.161323 -4.742632 19.436416 0.792834 -8.906465 0.488425 2.900918 -0.160128 1.405265 -3.844054 -13.343350 -21.776926 -25.237640 117.780732 -56.517845 -104.003794 9.854092 14.033433 -17.673691 0.192179 -1.068305 2.732900 2.749431 -1.783653 13.212378 76.042502 -67.372781 -111.129864 2.771722 12.043891 20.745764 10.013142 -59.893239 -17.928400 -155.168149 78.481914 -148.620867 -7.389499 -12.256297 -0.878885 0.052288 -0.316401 0.021980 -1.247433 -61.833259 6.403126 -106.662478 81.313964 -111.408420 5.024176 -6.939438 5.248548 0.283417 0.386436 0.176775
-26.404282 46.958771 26.698167 -178.970341 -25.998389 -2.454122 -0.744453 18.326394 1.980720 -0.085127 2.097906 0.287620 -0.134934 3.470490 0.474460 -0.388127 16.019473 2.159677 -4.699787 19.465115 0.783489 -8.822728 0.490540 2.880538 -0.142818 1.395090 -3.827833 -13.331251 -21.945970 -25.216975 116.908301 -56.495656 -103.207492 9.917509 14.334096 -17.616245 0.195677 -1.050361 2.735345 2.771696 -1.756156 13.203271 76.142742 -67.382490 -111.221280 2.748583 12.030580 20.719880 9.991856 -59.913215 -17.899436 -155.214319 78.499057 -148.653601 -7.413538 -12.258149 -0.905179 0.076522 -0.315226 0.027449 -1.166841 -61.851575 6.385737 -106.579140 81.297841 -111.318818 5.051395 -6.939586 5.259958 0.256698 0.389042 0.187153
-26.400016 46.960978 26.702104 -178.996093 -25.977548 -2.448002 -0.729416 18.361948 1.972694 -0.080407 2.076271 0.292775 -0.136153 3.517762 0.468685 -0.375712 15.964445 2.168230 -4.665799 19.479197 0.778848 -8.725991 0.506366 2.851655 -0.096755 1.417880 -3.782992 -13.361368 -22.064369 -25.234968 116.168969 -56.432431 -102.590082 10.007762 14.643840 -17.551379 0.198702 -1.035275 2.738137 2.785909 -1.745866 13.198783 76.149269 -67.384627 -111.205931 2.726058 12.010282 20.701715 9.976296 -59.936488 -17.871621 -155.226292 78.510832 -148.669534 -7.412443 -12.264332 -0.916681 0.074233 -0.308716 0.025025 -1.135216 -61.872986 6.391915 -106.546800 81.298600 -111.294514 5.079630 -6.933742 5.279260 0.219167 0.385052 0.152967
-26.394538 46.964610 26.703711 -179.010664 -25.969831 -2.456202 -0.716890 18.395071 1.977415 -0.074857 2.072190 0.296776 -0.139089 3.519478 0.466863 -0.367432 15.975932 2.169985 -4.617720 19.478869 0.776417 -8.636453 0.509512 2.831743 -0.063949 1.400139 -3.746363 -13.380532 -22.187432 -25.240099 115.442236 -56.352234 -101.963244 10.123835 14.963251 -17.481882 0.201068 -1.043187 2.741886 2.792585 -1.747747 13.196187 76.220544 -67.393654 -111.274145 2.739125 12.011433 20.712018 9.900838 -59.945192 -17.792056 -155.218241 78.527930 -148.677466 -7.419273 -12.276568 -0.940464 0.070201 -0.297904 0.034241 -1.130917 -61.880114 6.415748 -106.521377 81.296955 -111.267176 5.098822 -6.931188 5.283075 0.209648 0.383012 0.142040
-26.386602 46.968028 26.706103 -179.034215 -25.954831 -2.478089 -0.687789 18.401853 2.004723 -0.084021 2.116200 0.285897 -0.129146 3.488750 0.475396 -0.361447 15.987254 2.173995 -4.555970 19.487888 0.767648 -8.554286 0.494202 2.821877 -0.048272 1.366273 -3.728516 -13.383160 -22.260339 -25.240315 114.780630 -56.247084 -101.416688 10.250071 15.283707 -17.422231 0.203812 -1.047595 2.743845 2.796988 -1.761032 13.193938 76.269339 -67.401972 -111.317784 2.759958 12.033601 20.739289 9.824187 -59.962777 -17.713612 -155.240018 78.548140 -148.674077 -7.442622 -12.275656 -1.001169 0.102281 -0.301138 0.052415 -1.136519 -61.896087 6.469716 -106.499209 81.288965 -111.236156 5.107080 -6.931932 5.289440 0.201621 0.384261 0.136640
-26.381147 46.971241 26.708456 -179.055157 -25.937260 -2.490039 -0.662408 18.390541 2.025350 -0.089801 2.138430 0.278958 -0.127329 3.492852 0.475175 -0.350361 16.037937 2.163554 -4.499788 19.440562 0.780807 -8.459056 0.479602 2.805141 -0.032645 1.295206 -3.693849 -13.374783 -22.307507 -25.259671 114.152230 -56.129852 -100.928756 10.366157 15.576659 -17.387744 0.205720 -1.091045 2.761270 2.797085 -1.792244 13.193973 76.230166 -67.401344 -111.274981 2.768261 12.035406 20.752271 9.752999 -59.981369 -17.651829 -155.238267 78.566291 -148.663393 -7.434752 -12.279773 -1.045092 0.112710 -0.298637 0.058144 -1.099027 -61.917812 6.476170 -106.515470 81.285300 -111.235900 5.113366 -6.927296 5.306064 0.186137 0.379636 0.125261
-26.378913 46.974985 26.708906 -179.086124 -25.929954 -2.482823 -0.641732 18.409747 2.019701 -0.089243 2.138122 0.280556 -0.125526 3.496912 0.474849 -0.341735 16.046498 2.161432 -4.446545 19.427660 0.779665 -8.362257 0.452226 2.787719 -0.005357 1.277497 -3.657163 -13.365053 -22.360031 -25.299646 113.534496 -56.013608 -100.459980 10.462247 15.820243 -17.384276 0.214338 -1.091678 2.766081 2.797304 -1.793025 13.196669 76.178472 -67.395710 -111.221642 2.751342 12.011531 20.744305 9.729100 -59.989274 -17.623848 -155.260095 78.579881 -148.689233 -7.409174 -12.280448 -1.067619 0.102003 -0.298621 0.056131 -1.064751 -61.926696 6.475852 -106.542605 81.286411 -111.257509 5.119066 -6.921299 5.314493 0.171140 0.370290 0.110619
-26.373196 46.979644 26.706862 -179.154712 -25.938237 -2.484774 -0.588057 18.457211 2.035247 -0.081950 2.120831 0.286245 -0.120724 3.495576 0.476032 -0.333979 16.043464 2.161571 -4.400676 19.425058 0.773551 -8.266554 0.413873 2.768311 0.025287 1.285219 -3.632975 -13.380450 -22.395395 -25.321931 112.965583 -55.893341 -100.042397 10.540820 16.011134 -17.407920 0.220126 -1.081525 2.765999 2.789784 -1.765591 13.201518 76.237390 -67.398731 -111.276594 2.748400 12.002155 20.742755 9.704162 -59.988153 -17.547293 -155.269022 78.588103 -148.697297 -7.374095 -12.291473 -1.079961 0.070123 -0.288207 0.043179 -1.056724 -61.919298 6.538660 -106.574569 81.270545 -111.288895 5.170229 -6.907199 5.326954 0.136259 0.341124 0.088546
-26.372513 46.982085 26.707875 -179.170105 -25.921748 -2.484243 -0.576743 18.446006 2.039348 -0.085108 2.125855 0.284677 -0.116730 3.492218 0.477382 -0.333208 16.055020 2.159592 -4.359995 19.413489 0.766774 -8.172855 0.369454 2.749095 0.046488 1.294390 -3.615827 -13.385841 -22.429270 -25.339064 112.407307 -55.782813 -99.640736 10.600792 16.155834 -17.452893 0.223952 -1.090302 2.767108 2.787935 -1.757306 13.201611 76.188126 -67.392892 -111.232190 2.730658 11.978504 20.741397 9.701101 -60.004402 -17.541432 -155.241716 78.593293 -148.650405 -7.400869 -12.266390 -1.112378 0.110410 -0.312505 0.056010 -1.046899 -61.937465 6.541911 -106.604696 81.263454 -111.308981 5.157166 -6.931769 5.316756 0.165377 0.362174 0.090358
-26.368191 46.983820 26.709402 -179.207593 -25.900934 -2.500300 -0.546830 18.439825 2.063286 -0.078178 2.119451 0.287738 -0.123394 3.504616 0.474347 -0.331752 16.062728 2.157545 -4.319286 19.386805 0.763899 -8.076852 0.321519 2.725884 0.073154 1.297864 -3.600549 -13.374747 -22.473656 -25.364572 111.852257 -55.688546 -99.244729 10.639821 16.269724 -17.518542 0.240583 -1.076970 2.763681 2.775862 -1.737741 13.195641 76.235604 -67.405812 -111.278922 2.734294 11.975622 20.741168 9.642249 -60.030475 -17.469894 -155.268933 78.612409 -148.659543 -7.411788 -12.263390 -1.155257 0.142072 -0.316061 0.062665 -1.076249 -61.961138 6.609718 -106.625061 81.255277 -111.323839 5.170407 -6.935246 5.313611 0.146384 0.361316 0.082595
